<svg width="484" height="193" viewBox="0 0 484 193" fill="none" xmlns="http://www.w3.org/2000/svg">
<path d="M241.5 29H244C249.833 65.6667 268.5 139.5 291.5 146C304.241 149.601 323.174 136.558 338.5 121C363.127 96 371 80.5 371 80.5L370 89C368.5 103.5 357.5 164 388.5 173C396.016 175.182 409.402 175.684 429.5 169.5C440.97 165.971 463.381 153.068 471.436 146.056C471.479 146.016 471.5 146 471.5 146C471.479 146.018 471.458 146.037 471.436 146.056C470.772 146.673 464.962 152.977 456.5 191L241.5 192.5V29Z" fill="#B88A44"/>
<path d="M242 29H239.5C233.667 65.6667 215 139.5 192 146C179.259 149.601 160.326 136.558 145 121C120.373 96 112.5 80.5 112.5 80.5L113.5 89C115 103.5 126 164 95 173C87.4841 175.182 74.0978 175.684 54 169.5C42.5303 165.971 20.1186 153.068 12.0636 146.056C12.0214 146.016 12 146 12 146C12.0211 146.018 12.0423 146.037 12.0636 146.056C12.7277 146.673 18.5377 152.977 27 191L242 192.5V29Z" fill="#B88A44"/>
<circle cx="373.5" cy="70.5" r="11.5" fill="#B88A44"/>
<circle cx="109.5" cy="70.5" r="11.5" fill="#B88A44"/>
<circle cx="475.5" cy="140.5" r="8.5" fill="#B88A44"/>
<circle cx="8.5" cy="140.5" r="8.5" fill="#B88A44"/>
<circle cx="242" cy="15" r="15" fill="#B88A44"/>
</svg>
